<svg xmlns:xlink="http://www.w3.org/1999/xlink" xmlns="http://www.w3.org/2000/svg" width="88" height="218" viewBox="0 0 88 218" fill="none" id="svg-526978755_857">
<g clip-path="url(#svg-526978755_857_clip0_676_21528)" fill="none">
<path d="M-1332 -398C-1332 -411.255 -1321.25 -422 -1308 -422H64C77.2548 -422 88 -411.255 88 -398V12C88 25.2548 77.2548 36 64 36H-545.175C-568.93 36 -591.241 47.4039 -605.154 66.6577L-659.846 142.342C-673.759 161.596 -696.07 173 -719.825 173H-1308C-1321.25 173 -1332 162.255 -1332 149V-398Z" fill="black"></path>
<path d="M88 635C88 648.255 77.2548 659 64 659H-1308C-1321.25 659 -1332 648.255 -1332 635V207C-1332 193.745 -1321.25 183 -1308 183H-709.602C-685.972 183 -663.763 171.715 -649.831 152.628L-594.169 76.3716C-580.237 57.2852 -558.028 46 -534.398 46H64C77.2548 46 88 56.7452 88 70V635Z" fill="#F50032"></path>
</g>
<defs>
<clipPath id="svg-526978755_857_clip0_676_21528">
<rect width="88" height="218" fill="white"></rect>
</clipPath>
</defs>
</svg>