<svg xmlns:xlink="http://www.w3.org/1999/xlink" xmlns="http://www.w3.org/2000/svg" width="488" height="218" viewBox="0 0 488 218" fill="none" id="svg-68142955_861">
<g clip-path="url(#svg-68142955_861_clip0_676_21519)" fill="none">
<path d="M-844 -398C-844 -411.255 -833.255 -422 -820 -422H552C565.255 -422 576 -411.255 576 -398V12C576 25.2548 565.255 36 552 36H-57.1754C-80.9301 36 -103.241 47.4039 -117.154 66.6577L-171.846 142.342C-185.759 161.596 -208.07 173 -231.825 173H-820C-833.255 173 -844 162.255 -844 149V-398Z" fill="black"></path>
<path d="M576 635C576 648.255 565.255 659 552 659H-820C-833.255 659 -844 648.255 -844 635V207C-844 193.745 -833.255 183 -820 183H-221.602C-197.972 183 -175.763 171.715 -161.831 152.628L-106.169 76.3716C-92.2374 57.2852 -70.0282 46 -46.3981 46H552C565.255 46 576 56.7452 576 70V635Z" fill="#F50032"></path>
</g>
<defs>
<clipPath id="svg-68142955_861_clip0_676_21519">
<rect width="488" height="218" fill="white"></rect>
</clipPath>
</defs>
</svg>