<svg xmlns:xlink="http://www.w3.org/1999/xlink" xmlns="http://www.w3.org/2000/svg" width="488" height="218" viewBox="0 0 488 218" fill="none" id="svg-1544431740_844">
<g clip-path="url(#svg-1544431740_844_clip0_676_21506)" fill="none">
<path d="M-88 -398C-88 -411.255 -77.2548 -422 -64 -422H1308C1321.25 -422 1332 -411.255 1332 -398V12C1332 25.2548 1321.25 36 1308 36H698.825C675.07 36 652.759 47.4039 638.846 66.6577L584.154 142.342C570.241 161.596 547.93 173 524.175 173H-64C-77.2549 173 -88 162.255 -88 149V-398Z" fill="black"></path>
<path d="M1332 635C1332 648.255 1321.25 659 1308 659H-64C-77.2548 659 -88 648.255 -88 635V207C-88 193.745 -77.2548 183 -64 183H534.398C558.028 183 580.237 171.715 594.169 152.628L649.831 76.3716C663.763 57.2852 685.972 46 709.602 46H1308C1321.25 46 1332 56.7452 1332 70V635Z" fill="#F50032"></path>
</g>
<defs>
<clipPath id="svg-1544431740_844_clip0_676_21506">
<rect width="488" height="218" fill="white"></rect>
</clipPath>
</defs>
</svg>