<svg xmlns:xlink="http://www.w3.org/1999/xlink" xmlns="http://www.w3.org/2000/svg" width="88" height="218" viewBox="0 0 88 218" fill="none" id="svg143090936_819">
<g clip-path="url(#svg143090936_819_clip0_676_21525)" fill="none">
<path d="M0 -398C0 -411.255 10.7452 -422 24 -422H1396C1409.25 -422 1420 -411.255 1420 -398V12C1420 25.2548 1409.25 36 1396 36H786.825C763.07 36 740.759 47.4039 726.846 66.6577L672.154 142.342C658.241 161.596 635.93 173 612.175 173H24C10.7451 173 0 162.255 0 149V-398Z" fill="black"></path>
<path d="M1420 635C1420 648.255 1409.25 659 1396 659H24C10.7452 659 0 648.255 0 635V207C0 193.745 10.7452 183 24 183H622.398C646.028 183 668.237 171.715 682.169 152.628L737.831 76.3716C751.763 57.2852 773.972 46 797.602 46H1396C1409.25 46 1420 56.7452 1420 70V635Z" fill="#F50032"></path>
</g>
<defs>
<clipPath id="svg143090936_819_clip0_676_21525">
<rect width="88" height="218" fill="white"></rect>
</clipPath>
</defs>
</svg>