<svg xmlns:xlink="http://www.w3.org/1999/xlink" xmlns="http://www.w3.org/2000/svg" width="268" height="218" viewBox="0 0 268 218" fill="none" id="svg1137613794_845">
<g clip-path="url(#svg1137613794_845_clip0_676_21510)" fill="none">
<path d="M-576 -398C-576 -411.255 -565.255 -422 -552 -422H820C833.255 -422 844 -411.255 844 -398V12C844 25.2548 833.255 36 820 36H210.825C187.07 36 164.759 47.4039 150.846 66.6577L96.1541 142.342C82.2408 161.596 59.9302 173 36.1754 173H-552C-565.255 173 -576 162.255 -576 149V-398Z" fill="black"></path>
<path d="M844 635C844 648.255 833.255 659 820 659H-552C-565.255 659 -576 648.255 -576 635V207C-576 193.745 -565.255 183 -552 183H46.3981C70.0282 183 92.2374 171.715 106.169 152.628L161.831 76.3716C175.763 57.2852 197.972 46 221.602 46H820C833.255 46 844 56.7452 844 70V635Z" fill="#F50032"></path>
</g>
<defs>
<clipPath id="svg1137613794_845_clip0_676_21510">
<rect width="268" height="218" fill="white"></rect>
</clipPath>
</defs>
</svg>