<svg xmlns:xlink="http://www.w3.org/1999/xlink" xmlns="http://www.w3.org/2000/svg" width="175" height="101" viewBox="0 0 175 101" fill="none" id="svg-579556907_615">
<path d="M0 100.219C31.2956 100.219 43.6861 50.1094 74.9762 50.1094V0C43.6861 0 31.2956 50.1094 0 50.1094V100.219Z" fill="#F6F4F4"></path>
<path d="M75.0317 100.219C106.322 100.219 118.718 50.1094 150.008 50.1094V0C118.718 0 106.322 50.1094 75.0317 50.1094V100.219Z" fill="#F6F4F4"></path>
<path d="M150.008 100.219C156.636 100.219 162.993 97.5791 167.68 92.8804C172.367 88.1817 175 81.809 175 75.1641C175 68.5192 172.367 62.1464 167.68 57.4477C162.993 52.7491 156.636 50.1094 150.008 50.1094V100.219Z" fill="#F6F4F4"></path>
</svg>