<svg xmlns:xlink="http://www.w3.org/1999/xlink" xmlns="http://www.w3.org/2000/svg" width="28" height="28" viewBox="0 0 28 28" fill="none" id="svg-1541541151_1365">
<path fill-rule="evenodd" clip-rule="evenodd" d="M13.7881 2.37598C7.47695 2.37598 2.375 7.51554 2.375 13.8739C2.375 18.9564 5.644 23.2587 10.179 24.7814C10.7459 24.8959 10.9536 24.534 10.9536 24.2296C10.9536 23.9631 10.9349 23.0494 10.9349 22.0974C7.7601 22.7829 7.09896 20.7268 7.09896 20.7268C6.58874 19.3942 5.83276 19.0518 5.83276 19.0518C4.79363 18.3474 5.90845 18.3474 5.90845 18.3474C7.06112 18.4236 7.66595 19.5276 7.66595 19.5276C8.68615 21.2788 10.3301 20.784 10.9915 20.4794C11.0859 19.737 11.3884 19.223 11.7096 18.9375C9.17745 18.671 6.51328 17.6811 6.51328 13.2646C6.51328 12.0082 6.9665 10.9803 7.68464 10.1809C7.57133 9.89539 7.17442 8.71493 7.79818 7.13498C7.79818 7.13498 8.76184 6.83034 10.9347 8.31521C11.865 8.06353 12.8244 7.93549 13.7881 7.93442C14.7518 7.93442 15.7341 8.06781 16.6413 8.31521C18.8144 6.83034 19.778 7.13498 19.778 7.13498C20.4018 8.71493 20.0046 9.89539 19.8913 10.1809C20.6284 10.9803 21.0629 12.0082 21.0629 13.2646C21.0629 17.6811 18.3988 18.6518 15.8477 18.9375C16.2635 19.2992 16.6223 19.9844 16.6223 21.0695C16.6223 22.6114 16.6037 23.8488 16.6037 24.2294C16.6037 24.534 16.8116 24.8959 17.3783 24.7817C21.9133 23.2585 25.1823 18.9564 25.1823 13.8739C25.201 7.51554 20.0803 2.37598 13.7881 2.37598Z" fill="black"></path>
</svg>