<svg xmlns:xlink="http://www.w3.org/1999/xlink" xmlns="http://www.w3.org/2000/svg" style="width:100%;height:100%" viewBox="0 0 34 20" preserveAspectRatio="none" width="34" height="20"><defs><svg width="34" height="20" viewBox="0 0 34 20" fill="none" id="svg-1286600819_643">
<path d="M0 19.2836C6.03683 19.2836 8.42692 9.64179 14.4627 9.64179V0C8.42692 0 6.03683 9.64179 0 9.64179V19.2836Z" fill="#F50032"></path>
<path d="M14.4734 19.2836C20.5092 19.2836 22.9004 9.64177 28.9361 9.64177V-1.14441e-05C22.9004 -1.14441e-05 20.5092 9.64177 14.4734 9.64177V19.2836Z" fill="#F50032"></path>
<path d="M28.9361 19.2835C30.2147 19.2835 31.4409 18.7756 32.345 17.8715C33.2491 16.9674 33.757 15.7412 33.757 14.4626C33.757 13.1841 33.2491 11.9579 32.345 11.0538C31.4409 10.1497 30.2147 9.64175 28.9361 9.64175V19.2835Z" fill="#F50032"></path>
</svg></defs><use href="#svg-1286600819_643"></use></svg>