<svg xmlns:xlink="http://www.w3.org/1999/xlink" xmlns="http://www.w3.org/2000/svg" style="width:100%;height:100%" viewBox="0 0 123 26" preserveAspectRatio="none" width="123" height="26"><defs><svg width="123" height="26" viewBox="0 0 123 26" fill="none" id="svg-2132858845_13535">
<g clip-path="url(#svg-2132858845_13535_clip0_415_18406)" fill="none">
<path d="M120.319 11.7665C120.319 11.7665 120.317 11.764 120.314 11.7627C120.314 11.7627 120.314 11.7627 120.313 11.7614C120.248 11.7065 120.18 11.6529 120.11 11.5979C121.302 10.8838 122.039 9.55149 122.039 8.02496C122.039 6.21612 120.994 4.74964 119.597 3.79795C119.373 3.64594 119.138 3.50542 118.893 3.3764C118.49 2.71342 117.92 2.14496 117.255 1.69275C115.933 0.792164 114.167 0.285026 112.256 0.285026C109.946 0.285026 107.906 0.995275 106.428 2.31358C105.988 2.70575 105.607 3.14774 105.285 3.62933C104.929 3.35085 104.534 3.12475 104.111 2.9574C103.97 2.6802 103.803 2.42344 103.606 2.17562L103.596 2.16284L103.586 2.15007C102.783 1.19455 101.613 0.60055 100.31 0.60055C98.9129 0.60055 97.5602 1.3223 96.7996 2.46176C96.7996 2.46176 96.7919 2.47326 96.7881 2.47837C96.7855 2.48092 96.7842 2.48476 96.7817 2.48731C96.2102 3.32019 96.0542 4.08921 96.0274 5.19163L95.4303 4.45966C94.9854 3.90909 94.4779 3.44027 93.8655 3.11453C93.7696 3.06343 93.6712 3.01744 93.574 2.97529L93.0064 2.27781C92.5832 1.75407 92.114 1.32485 91.5604 1.02977C90.9954 0.728293 90.3996 0.599273 89.777 0.599273C88.5228 0.599273 87.3927 1.03232 86.5757 1.86776C86.3316 2.11813 86.1244 2.39661 85.9519 2.69681C85.4238 1.84093 84.5673 1.19966 83.5138 0.923739C83.5138 0.923739 83.51 0.923739 83.5087 0.922462C82.9168 0.765338 82.5933 0.742345 80.8125 0.742345H77.0244C76.1141 0.742345 75.5363 0.747454 75.0965 0.801106C74.5876 0.862423 74.2616 0.986333 73.8781 1.13962L73.8628 1.14601L73.8474 1.1524C72.9602 1.53818 72.1266 2.30336 71.738 3.32019C71.5871 3.67021 71.472 3.9819 71.4145 4.4571C71.4107 4.48776 71.4081 4.52098 71.4043 4.55291C71.146 4.35491 70.8763 4.17224 70.595 4.00362C69.5595 2.61505 68.0752 1.56501 66.3237 1.07192L66.3032 1.06553L66.2828 1.06042C65.3367 0.831765 64.5543 0.742345 62.9473 0.742345H60.3073C59.5134 0.742345 58.846 0.792164 58.2515 0.967172C57.6212 1.15368 57.1418 1.4577 56.6918 1.85498V1.85754C56.4783 2.0466 56.2878 2.24971 56.1203 2.4707C55.8148 2.03893 55.4197 1.6672 54.9505 1.39128C54.9505 1.39128 54.9467 1.38872 54.9441 1.38745C54.9441 1.38745 54.9416 1.38617 54.9403 1.38489C54.4903 1.11663 54.0735 0.932681 53.4522 0.838152C52.9037 0.755119 52.198 0.742345 51.1842 0.742345H47.3961C46.5613 0.742345 45.9438 0.770448 45.6191 0.804939C45.6191 0.804939 45.6165 0.804939 45.6152 0.804939C45.6127 0.804939 45.6089 0.804939 45.6063 0.804939C44.9338 0.87392 44.1693 1.07959 43.5902 1.47176C43.5902 1.47176 43.5799 1.47814 43.5748 1.48198C43.5723 1.48325 43.5697 1.48453 43.5672 1.48709C42.9816 1.8767 42.515 2.35829 42.1966 2.99956C42.1621 2.98551 42.1276 2.97146 42.0918 2.9574C41.9192 2.59845 41.6993 2.2842 41.4347 1.98528L40.6804 2.64954L41.436 1.98528L41.4296 1.97889L41.4232 1.97251C40.6229 1.09236 39.4505 0.599273 38.2334 0.599273C37.0163 0.599273 35.8747 1.09491 35.0769 1.99678C35.0769 1.99678 35.068 2.007 35.0629 2.01339C35.0603 2.01594 35.0577 2.0185 35.0565 2.02105C34.7611 2.34552 34.5208 2.68276 34.3456 3.08387C34.2779 3.05321 34.2101 3.02255 34.1424 2.99573C33.9928 2.69042 33.8049 2.41961 33.5824 2.1539C33.5824 2.1539 33.5811 2.15263 33.5798 2.15135C32.7898 1.20605 31.496 0.601828 30.2469 0.601828C28.9352 0.601828 27.7373 1.23288 26.9395 2.21266C26.9395 2.21266 26.9344 2.21905 26.9319 2.22161C26.9319 2.22288 26.9293 2.22416 26.928 2.22544C26.5867 2.63677 26.3131 3.05577 26.1571 3.63189C26.1137 3.79412 26.0817 3.96146 26.0574 4.13775C26.0497 4.13008 26.0433 4.12242 26.0369 4.11475C26.0369 4.11475 26.0369 4.11475 26.0357 4.11348C25.5793 3.63572 24.9976 3.24738 24.3571 2.98934C24.1717 2.60356 23.9313 2.26759 23.6335 1.95718C22.8549 1.1409 21.6736 0.604383 20.4923 0.604383C19.2087 0.604383 17.9175 1.26481 17.1159 2.25737L17.1056 2.27015L17.0954 2.28292L17.9942 2.96507L17.0941 2.28292C16.7988 2.67126 16.5636 3.05832 16.414 3.57696C16.3002 3.50925 16.1839 3.44283 16.065 3.38023C15.6623 2.71725 15.0921 2.14879 14.4273 1.69658C13.0977 0.78961 11.3321 0.282471 9.42084 0.282471C7.11067 0.282471 5.07025 0.992721 3.59235 2.31103C2.10295 3.63955 1.25917 5.5212 1.25917 7.69155C1.25917 9.2283 1.6606 10.599 2.5274 11.7346C2.78692 12.0744 3.08225 12.3848 3.40953 12.6671C3.43255 12.731 3.45684 12.7949 3.4824 12.8587C1.91118 13.3953 0.800201 14.8707 0.800201 16.6374C0.800201 18.2163 1.58517 19.564 2.76519 20.5591C3.17558 21.8799 4.10885 22.9747 5.27864 23.7641C6.86265 24.8321 8.9721 25.4248 11.2567 25.4248C13.9044 25.4248 16.0522 24.7031 17.6963 23.059L17.7027 23.0526L17.7091 23.0462C18.3649 22.3743 18.8878 21.581 19.2624 20.7188C19.4197 20.973 19.5884 21.2246 19.7738 21.4776V21.4801C21.5726 23.9226 24.4606 25.4235 27.5097 25.4235C30.2265 25.4235 32.8716 24.1934 34.6985 22.1048C34.6985 22.1048 34.7023 22.1009 34.7036 22.0984C34.7049 22.0971 34.7062 22.0946 34.7087 22.0933C34.9606 21.8097 35.1881 21.5172 35.3965 21.2157C35.5372 21.3358 35.688 21.4469 35.8466 21.5478C35.8747 21.6768 35.9054 21.8046 35.9437 21.9298C36.1432 22.5864 36.4692 23.1076 36.8974 23.5764C36.8974 23.5764 36.8987 23.5789 36.9 23.5789C36.9 23.5789 36.9 23.5802 36.9026 23.5815C37.7578 24.5217 39.122 25.0786 40.3761 25.0786C41.6303 25.0786 42.9676 24.4897 43.8497 23.524V23.5214L42.7298 22.5033H42.7285L43.8497 23.5214C43.9942 23.3618 44.122 23.1982 44.2371 23.0309C45.0706 24.3007 46.5536 25.0786 48.1006 25.0786C49.6475 25.0786 51.2111 24.233 52.0331 22.8942C52.3271 22.4165 52.5522 21.9528 52.6672 21.2834C52.7644 20.7149 52.7746 20.0226 52.7746 19.1169V17.6223H53.5251C54.1221 17.6223 54.7153 17.5482 55.2663 17.3706C55.2765 18.6838 55.5374 19.7735 56.252 20.6855L56.2558 20.6907L56.2597 20.6958C56.5269 21.0305 56.8491 21.3153 57.2045 21.5478C57.3681 22.2019 57.643 22.8035 58.0713 23.3503L58.0764 23.3567L58.0815 23.363C58.9649 24.4655 60.361 25.0786 61.734 25.0786C63.6057 25.0786 65.1552 24.0145 65.8903 22.4586L66.146 22.8827V22.8866C66.9974 24.2892 68.4089 25.0786 70.0555 25.0786C71.7022 25.0786 73.1481 24.2662 73.9804 23.0015C74.4572 23.6888 75.1246 24.2215 75.9518 24.5625L76.5296 23.1612L75.953 24.5625L75.9799 24.574L76.0067 24.5843C76.8224 24.8845 77.4565 24.9356 78.9421 24.9356H83.8501C84.5916 24.9356 85.2449 24.9023 85.8317 24.7529C86.4799 24.5881 86.9695 24.3045 87.4221 23.934L87.4374 23.9213L87.4528 23.9085L86.462 22.7614L87.454 23.9085C87.6778 23.7156 87.8798 23.4984 88.06 23.2634C88.9524 24.408 90.3408 25.0799 91.7816 25.0799C93.2224 25.0799 94.5009 24.4399 95.383 23.3924L94.2209 22.4177H94.2222L95.383 23.3924L95.3971 23.3758L95.4112 23.3579C95.7742 22.9006 96.0644 22.4114 96.2434 21.788C96.3802 21.3128 96.4339 20.8133 96.4505 20.278L98.7364 23.2059C99.6569 24.399 100.915 25.0799 102.429 25.0799C103.843 25.0799 105.218 24.4565 106.099 23.3119L106.102 23.3081L106.104 23.3043C106.314 23.0296 106.489 22.746 106.633 22.4369C107.053 22.9415 107.554 23.3873 108.11 23.7629C109.694 24.8308 111.804 25.4235 114.089 25.4235C116.737 25.4235 118.885 24.7018 120.529 23.0577L120.535 23.0513L120.542 23.045C121.98 21.5721 122.782 19.5231 122.782 17.4268C122.782 15.3306 121.893 13.0746 120.317 11.764L120.319 11.7665Z" fill="black"></path>
<path d="M9.13319 21.484C11.4868 21.484 13.2089 20.8529 14.5002 19.5627C15.6482 18.3875 16.3079 16.7243 16.3079 15.0036C16.3079 13.1973 15.5613 11.4766 14.3851 10.5019C13.4953 9.7559 11.9458 8.98178 10.3094 8.49508C8.81741 8.0071 8.41469 7.74906 8.41469 7.1755C8.41469 6.77439 8.7586 6.42948 9.16131 6.42948C9.50522 6.42948 9.821 6.57255 10.482 7.11801C11.5444 7.92152 12.2322 8.20766 13.0938 8.20766C14.5283 8.20766 15.5626 7.11801 15.5626 5.59787C15.5626 3.24613 12.865 1.41174 9.42084 1.41174C5.25946 1.41174 2.38933 3.96404 2.38933 7.69158C2.38933 10.3588 3.76622 12.1651 6.5507 13.1398C7.0672 13.3404 7.5837 13.5128 8.10019 13.684C9.10506 14.057 9.19072 14.1145 9.36331 14.2282C9.70722 14.4581 9.85168 14.6868 9.85168 15.0317C9.85168 15.5197 9.5359 15.8633 9.04753 15.8633C8.58856 15.8633 8.41597 15.7483 7.03907 14.688C6.23492 14.0289 5.57524 13.7709 4.8005 13.7709C3.19347 13.7709 1.93036 15.033 1.93036 16.6387C1.93036 19.3634 5.05874 21.4852 9.13319 21.4852V21.484ZM23.668 5.4548C23.668 4.10712 23.4378 3.39048 22.8076 2.73005C22.2335 2.12838 21.3437 1.72599 20.4833 1.72599C19.5654 1.72599 18.5887 2.21397 17.9865 2.95871C17.4419 3.67535 17.3268 4.13394 17.3268 5.9415V12.6799C17.3268 15.2029 17.7001 16.5505 18.8763 18.1575C20.3977 20.2219 22.837 21.484 25.3913 21.484C27.658 21.484 29.8966 20.4518 31.4474 18.6736C32.8243 17.1254 33.4558 15.2616 33.4558 12.6799V5.88402C33.4558 4.16332 33.3127 3.58976 32.7092 2.87312C32.1352 2.18459 31.1597 1.72599 30.2405 1.72599C29.3213 1.72599 28.4034 2.18459 27.8012 2.9306C27.2272 3.61914 27.1121 4.04835 27.1121 5.45352V13.081C27.1121 14.4006 26.4806 15.2029 25.3901 15.2029C24.2995 15.2029 23.668 14.3712 23.668 12.9942V5.45225V5.4548ZM41.413 5.65536C41.413 4.10712 41.2122 3.44796 40.5807 2.73005C40.0067 2.099 39.1463 1.72599 38.227 1.72599C37.3078 1.72599 36.4768 2.099 35.9028 2.75815C35.2431 3.47479 35.0987 4.04835 35.0987 5.65408V17.4971C35.0987 18.8167 35.2994 19.4759 35.9028 20.135C36.4487 20.7367 37.3948 21.1391 38.2564 21.1391C39.1181 21.1391 40.0067 20.738 40.6101 20.0775C41.1841 19.4465 41.4142 18.7005 41.4142 17.4971V5.65536H41.413ZM49.14 13.684H51.4067C53.2144 13.684 54.1899 12.8524 54.1899 11.3616C54.1899 10.5581 53.7884 9.87087 53.1275 9.46848C52.6391 9.18234 52.1801 9.09547 51.0896 9.09547H49.1374V7.77589H52.3233C53.4714 7.77589 54.1029 7.60344 54.7051 7.08736C55.3072 6.54189 55.7099 5.6247 55.7099 4.76499C55.7099 3.76093 55.1935 2.84374 54.3612 2.35576C53.644 1.92527 53.2425 1.86778 51.1753 1.86778H47.3872C46.5549 1.86778 45.9809 1.89589 45.7226 1.92527C45.1486 1.98275 44.5746 2.15521 44.2013 2.41325C43.1964 3.0724 42.8244 3.93339 42.8244 5.6247V16.6642C42.8244 18.413 42.8819 18.786 43.2258 19.5027C43.7142 20.4774 44.8047 21.1378 45.9809 21.1378C47.0714 21.1378 48.0763 20.5642 48.6209 19.6751C49.0799 18.9291 49.1374 18.5574 49.1374 16.6923V13.6814L49.14 13.684ZM69.0008 13.6265C70.4646 11.9914 71.0386 10.5875 71.0386 8.75184C71.0386 5.65536 68.9727 2.98809 66.0169 2.15648C65.1846 1.95593 64.4955 1.87034 62.946 1.87034H60.306C58.7846 1.87034 58.1531 2.0709 57.4359 2.70195C56.6892 3.3611 56.4029 4.13522 56.4029 5.51229V17.2978C56.4029 18.5025 56.6317 19.3341 57.1495 19.9932C57.7235 20.7098 58.6709 21.1403 59.6169 21.1403C61.3671 21.1403 62.7159 19.7633 62.7159 17.957V15.3472L65.3278 19.6777C65.9018 20.6243 66.8197 21.1403 67.9397 21.1403C69.7193 21.1403 71.0962 19.7927 71.0962 18.0439C71.0962 17.3847 70.8955 16.6387 70.494 16.0076L69.0021 13.6278L69.0008 13.6265ZM62.7159 7.71968C63.0023 7.74779 63.2324 7.74778 63.3756 7.74778C64.3229 7.71968 64.8394 8.09141 64.8394 8.77995C64.8394 9.46848 64.351 9.81211 63.405 9.784H62.7159V7.71968ZM78.8027 15.0892V13.6559H81.0694C82.0743 13.6559 82.5333 13.5409 83.0203 13.1679C83.5368 12.7374 83.8526 12.0783 83.8526 11.3616C83.8526 10.0139 82.8478 9.09675 81.2983 9.09675H78.8014V7.77717H81.9579C83.1341 7.77717 83.7951 7.57661 84.3691 7.08863C85.0288 6.54317 85.4021 5.68346 85.4021 4.76627C85.4021 3.44669 84.5417 2.35704 83.2211 2.01341C82.7902 1.89844 82.6189 1.87034 80.8099 1.87034H77.0218C75.1566 1.87034 75.0134 1.89844 74.2962 2.18586C73.6365 2.47201 73.033 3.04557 72.7748 3.76349C72.5165 4.36516 72.4884 4.56699 72.4884 6.17272V16.5531C72.4884 17.8727 72.5165 18.0439 72.6035 18.4462C72.8042 19.564 73.4358 20.3381 74.4112 20.7405C74.9558 20.9411 75.3586 20.9985 76.8224 20.9985H81.7304C83.1648 20.9985 83.7107 20.8555 84.3423 20.3394C84.9738 19.7952 85.3753 18.9342 85.3753 18.0451C85.3753 17.156 85.002 16.3819 84.3423 15.8084C83.6826 15.2642 83.0792 15.0917 81.7023 15.0917H78.804L78.8027 15.0892ZM97.1511 9.15296L92.1294 2.98809C91.4121 2.099 90.6949 1.72599 89.7757 1.72599C87.7954 1.72599 86.4747 3.07368 86.4747 5.1099V17.211C86.4747 18.6161 86.6179 19.1897 87.1344 19.9063C87.7366 20.6805 88.6839 21.1391 89.6594 21.1391C90.6348 21.1391 91.4965 20.7086 92.0987 19.9919C92.6446 19.3034 92.8159 18.7298 92.8159 17.4677V13.4528L97.8095 19.8476C98.4692 20.7086 99.3015 21.1378 100.306 21.1378C101.311 21.1378 102.201 20.7073 102.774 19.9626C103.32 19.2459 103.463 18.6149 103.463 17.0947V5.39732C103.463 4.22208 103.262 3.56165 102.716 2.8744C102.114 2.15776 101.252 1.72727 100.305 1.72727C99.2721 1.72727 98.2672 2.27273 97.7226 3.10306C97.2636 3.76221 97.1486 4.33578 97.1486 5.59787V9.15423L97.1511 9.15296ZM111.968 21.484C114.322 21.484 116.044 20.8529 117.335 19.5627C118.483 18.3875 119.143 16.7243 119.143 15.0036C119.143 13.1973 118.397 11.4766 117.22 10.5019C116.331 9.7559 114.781 8.98178 113.145 8.49508C111.653 8.0071 111.25 7.74906 111.25 7.1755C111.25 6.77439 111.594 6.42948 111.997 6.42948C112.34 6.42948 112.656 6.57255 113.317 7.11801C114.378 7.92152 115.067 8.20766 115.929 8.20766C117.364 8.20766 118.397 7.11801 118.397 5.59787C118.397 3.24613 115.699 1.41174 112.255 1.41174C108.093 1.41174 105.223 3.96404 105.223 7.69158C105.223 10.3588 106.6 12.1651 109.385 13.1398C109.901 13.3404 110.418 13.5128 110.934 13.684C111.939 14.057 112.025 14.1145 112.197 14.2282C112.541 14.4581 112.686 14.6868 112.686 15.0317C112.686 15.5197 112.37 15.8633 111.883 15.8633C111.424 15.8633 111.251 15.7483 109.874 14.688C109.07 14.0289 108.411 13.7709 107.636 13.7709C106.029 13.7709 104.766 15.033 104.766 16.6387C104.766 19.3634 107.894 21.4852 111.968 21.4852V21.484Z" fill="#F6F4F4"></path>
</g>
<defs>
<clipPath id="svg-2132858845_13535_clip0_415_18406">
<rect width="122.112" height="25.2714" fill="white" transform="translate(0.736282 0.218628)"></rect>
</clipPath>
</defs>
</svg></defs><use href="#svg-2132858845_13535"></use></svg>