<svg xmlns:xlink="http://www.w3.org/1999/xlink" xmlns="http://www.w3.org/2000/svg" style="width:100%;height:100%" viewBox="0 0 183 36" preserveAspectRatio="none" width="183" height="36"><defs><svg width="183" height="36" viewBox="0 0 183 36" fill="none" id="svg1560642149_9171">
<mask id="svg1560642149_9171_mask0_415_18341" style="mask-type:luminance" maskUnits="userSpaceOnUse" x="0" y="3" width="106" height="30" fill="none">
<path d="M105.133 3.5H0.950012V32.542H105.133V3.5Z" fill="#FFFFFF"></path>
</mask>
<g mask="url(#svg1560642149_9171_mask0_415_18341)" fill="none">
<path d="M96.7548 24.2964L101.105 10.4688H105.064L98.0841 32.42H94.187L96.5735 24.834H93.2199L87.993 10.4688H91.8001L96.7548 24.2964Z" fill="#FFFFFF"></path>
<path d="M84.2507 10.9455L84.13 11.0052C85.1876 11.5728 85.973 12.3194 86.4866 13.2451C87.0003 14.1712 87.2417 15.2163 87.2417 16.3514V16.4111V26.6254H83.4956V23.4295C83.133 24.206 82.7098 24.8332 82.2567 25.3411C81.8036 25.8485 81.2294 26.2369 80.5345 26.5354C79.8395 26.8343 78.9939 26.9835 77.9965 26.9835C76.9696 26.9835 76.0328 26.7448 75.1868 26.2966C74.3408 25.8485 73.6762 25.2217 73.1928 24.4149C72.7095 23.6086 72.4676 22.7128 72.4676 21.7274C72.4676 20.5625 72.7999 19.6367 73.4646 18.9498C74.1297 18.2629 74.9454 17.7849 75.9121 17.486C76.8788 17.1875 77.9965 16.9786 79.2354 16.8592L83.5558 16.4111V16.2021V16.1424C83.5558 15.5152 83.435 14.9477 83.1935 14.4398C82.9517 13.932 82.5891 13.5141 82.0754 13.2152C81.5618 12.9168 80.9577 12.7675 80.2324 12.7675C79.2657 12.7675 78.5102 13.0063 77.9364 13.4843C77.3622 13.9619 77.0298 14.5592 76.9091 15.276H73.1024C73.2231 14.2309 73.616 13.3052 74.2504 12.5283C74.8848 11.7518 75.7308 11.1545 76.758 10.7366C77.7853 10.3183 78.9637 10.1094 80.2627 10.1094C81.8638 10.1094 83.1932 10.378 84.2507 10.9455ZM81.6223 23.9971L81.592 23.9672C82.1961 23.5489 82.6496 22.9814 82.9517 22.2646C83.2537 21.5479 83.4047 20.7117 83.4047 19.786V18.83L80.4743 19.1289C79.5677 19.2185 78.8425 19.3379 78.2687 19.4871C77.6945 19.6367 77.2111 19.8755 76.8182 20.2337C76.4257 20.5923 76.2141 21.1001 76.2141 21.7572C76.2141 22.3542 76.3652 22.862 76.6373 23.2803C76.9091 23.6982 77.302 24.0269 77.7853 24.2657C78.2687 24.5045 78.8126 24.6243 79.3864 24.6243C80.2627 24.6243 81.0178 24.415 81.6223 23.9971Z" fill="#FFFFFF"></path>
<path d="M70.2756 26.5651H66.4988V3.86719H70.2756V26.5651Z" fill="#FFFFFF"></path>
<path d="M55.6786 3.86719V3.92688C57.5822 3.92688 59.2136 4.19593 60.5732 4.76305C61.9328 5.33058 62.9601 6.16675 63.685 7.24211C64.4102 8.31706 64.7728 9.6312 64.7728 11.1547C64.7728 12.6778 64.4102 13.9919 63.685 15.0669C62.9601 16.1422 61.9328 16.9784 60.5732 17.5459C59.2136 18.1131 57.5822 18.3821 55.6786 18.3821H50.8144V26.5651H46.9168V3.86719H55.6786ZM55.7691 15.1564V15.1266C57.3706 15.1266 58.5792 14.7983 59.4252 14.1412C60.2712 13.4841 60.694 12.4983 60.694 11.1845C60.694 9.8704 60.2712 8.88459 59.4252 8.22751C58.5792 7.57044 57.3706 7.24211 55.7691 7.24211H50.8144V15.1564H55.7691Z" fill="#FFFFFF"></path>
<path d="M43.3348 26.5651H39.5584V10.4678H43.3348V26.5651ZM43.4257 7.98872H39.4676V3.86719H43.4257V7.98872Z" fill="#FFFFFF"></path>
<path d="M32.6603 10.4664L36.3462 10.4062V26.504H32.5997V23.3085C32.2068 24.3536 31.6027 25.2201 30.7567 25.8771C29.9107 26.5338 28.8532 26.8626 27.5541 26.8626C26.3455 26.8626 25.3485 26.5939 24.5328 26.0562C23.7171 25.5186 23.113 24.7719 22.7201 23.8164C22.3272 22.8604 22.116 21.7556 22.116 20.531V20.4713V10.4365H25.8924V19.7844V19.8441C25.8924 21.3075 26.1945 22.4127 26.7687 23.1294C27.3425 23.8462 28.1885 24.2044 29.2763 24.2044C30.3638 24.2044 31.2098 23.8462 31.784 23.1294C32.3582 22.4127 32.6603 21.3075 32.6603 19.8142V10.4664Z" fill="#FFFFFF"></path>
<path d="M5.97835 26.0593L5.94807 26.1787C4.61873 25.5813 3.53127 24.7451 2.68529 23.6399C1.83931 22.5351 1.32567 21.2508 1.11407 19.7576H5.16266C5.34397 21.1016 5.91819 22.1168 6.88491 22.8336C7.85163 23.5504 9.06022 23.909 10.5103 23.909C11.6886 23.909 12.7159 23.7597 13.5619 23.4608C14.4078 23.1623 15.0725 22.7441 15.5256 22.2064C15.9791 21.6691 16.1903 21.0419 16.1903 20.3549C16.1903 19.668 16.0094 19.1005 15.6467 18.6822C15.2841 18.2643 14.7705 17.9356 14.0755 17.6968C13.3806 17.458 12.4138 17.189 11.1451 16.9203L8.06322 16.2633C6.0995 15.845 4.55855 15.1282 3.44041 14.113C2.32267 13.0973 1.77874 11.7533 1.77874 10.081C1.77874 8.85636 2.17165 7.75156 2.92677 6.76574C3.6823 5.78034 4.70959 5.00386 6.00864 4.43633C7.30769 3.8688 8.75816 3.57031 10.3593 3.57031C12.0815 3.57031 13.5922 3.83896 14.8912 4.37664C16.1903 4.91432 17.2176 5.66093 18.0034 6.61649C18.7888 7.57205 19.3024 8.67727 19.514 9.93172H15.4654C15.1331 8.82651 14.5286 8.02019 13.6527 7.51236C12.7765 7.00493 11.6886 6.73589 10.3895 6.73589C9.51329 6.73589 8.72788 6.85528 8.00264 7.09447C7.2778 7.33326 6.7036 7.69185 6.28081 8.13958C5.85762 8.58771 5.64601 9.1254 5.64601 9.72278C5.64601 10.3496 5.79704 10.8574 6.0995 11.2459C6.40155 11.6339 6.88491 11.9626 7.54957 12.2313C8.21424 12.4999 9.15067 12.7689 10.3593 13.0376L13.4108 13.6947C14.9518 14.0234 16.1903 14.4413 17.1574 14.979C18.1241 15.5166 18.8493 16.1737 19.3327 16.98C19.8161 17.7864 20.0575 18.7718 20.0575 19.9367C20.0575 21.3404 19.665 22.565 18.8792 23.6399C18.0938 24.7153 16.9761 25.5216 15.5256 26.0891C14.0755 26.6566 12.3836 26.9551 10.48 26.9551C8.81834 26.9551 7.30768 26.6567 5.97835 26.0593Z" fill="#FFFFFF"></path>
</g>
<mask id="svg1560642149_9171_mask1_415_18341" style="mask-type:luminance" maskUnits="userSpaceOnUse" x="109" y="3" width="73" height="24" fill="none">
<path d="M181.453 3.80469H109.93V26.6567H181.453V3.80469Z" fill="#FFFFFF"></path>
</mask>
<g mask="url(#svg1560642149_9171_mask1_415_18341)" fill="none">
<path d="M132.932 24.9025L132.931 24.9029C132.4 25.2204 131.897 25.4672 131.422 25.6423L131.414 25.6447L131.407 25.6479C131.068 25.7879 130.552 25.9396 129.85 26.1025C129.341 26.2042 128.613 26.2586 127.652 26.2586H120.08C118.836 26.2586 117.819 26.1235 117.016 25.8678L117.013 25.8665L117.01 25.8657C115.133 25.2998 113.566 24.2345 112.303 22.6602C111.91 22.1302 111.585 21.6224 111.325 21.1319C110.662 19.7746 110.335 18.3943 110.335 16.9841V13.5217C110.335 11.3988 111.018 9.46228 112.397 7.70323C112.827 7.17967 113.319 6.692 113.877 6.24064C115.587 4.88777 117.584 4.21094 119.883 4.21094H127.881C130.675 4.21094 133.003 5.19029 134.896 7.15224C136.601 9.01334 137.448 11.1757 137.448 13.6524V16.7849C137.448 19.4628 136.481 21.7422 134.535 23.6456C133.946 24.1999 133.414 24.6157 132.932 24.9025ZM115.47 14.4958L115.472 14.4934V16.9474C115.472 18.1087 115.94 19.1385 116.839 20.0239L116.85 20.0348L116.862 20.0444C117.297 20.4135 117.711 20.6801 118.096 20.7894C118.583 21.0234 119.2 21.125 119.915 21.125H127.879C129.006 21.125 129.979 20.8185 130.762 20.18L130.767 20.1759L130.772 20.1715C131.779 19.2962 132.291 18.1805 132.291 16.849V13.6181C132.291 12.0652 131.605 10.8369 130.269 9.96648L130.264 9.96325L130.259 9.96044C129.594 9.55385 128.824 9.36064 127.962 9.36064H119.782C118.202 9.36064 116.953 10.0306 116.078 11.3452L116.07 11.3565L116.064 11.3686C115.669 12.0587 115.47 12.7775 115.47 13.5217V14.4958Z" stroke="#FFFFFF" stroke-width="0.807617px" fill="none"></path>
<path d="M138.718 4.21094H145.307C145.869 4.21094 146.322 4.41664 146.695 4.8442L146.7 4.84985L146.705 4.8555L152.487 11.0063L152.781 11.3198L153.076 11.0063L158.562 5.1669L159.06 4.63809C159.375 4.35332 159.743 4.21335 160.188 4.21335H166.811L156.723 14.9681L156.465 15.2436L156.723 15.5195L166.78 26.2586H160.156C159.611 26.2586 159.132 26.0339 158.706 25.5309L158.7 25.5233L158.693 25.5156L153.044 19.4955L152.748 19.1804L152.454 19.4963C148.695 23.5222 146.722 25.6225 146.512 25.825C146.196 26.1142 145.825 26.2562 145.376 26.2562H138.732C138.777 26.207 138.828 26.1525 138.886 26.0916L138.888 26.0892L138.89 26.0872C138.963 26.0077 139.045 25.921 139.139 25.8226C139.177 25.7834 139.214 25.7439 139.253 25.7032C139.315 25.6378 139.379 25.5701 139.45 25.4963L139.453 25.4934C139.466 25.4797 139.479 25.4656 139.493 25.4511C139.596 25.3422 139.708 25.2236 139.825 25.0961C139.956 24.9545 140.094 24.8045 140.242 24.6484C140.391 24.4895 140.552 24.3172 140.727 24.1293C140.748 24.1067 140.77 24.0837 140.792 24.0603C140.947 23.8953 141.114 23.7174 141.288 23.5275C141.483 23.3161 141.693 23.0934 141.916 22.8591L141.973 22.7994C142.18 22.582 142.399 22.3525 142.625 22.1092C142.757 21.9677 142.893 21.822 143.034 21.6704C143.157 21.5393 143.283 21.4042 143.413 21.2642C143.692 20.9657 143.985 20.6551 144.289 20.3324C144.597 20.0093 144.92 19.6677 145.26 19.3051C145.427 19.1272 145.594 18.9497 145.764 18.7682C145.946 18.5734 146.132 18.3741 146.329 18.1644L146.33 18.1636C146.696 17.7711 147.079 17.3629 147.479 16.9438C147.484 16.9394 147.487 16.9361 147.487 16.9361C147.497 16.9265 147.508 16.916 147.518 16.9063C147.538 16.8865 147.563 16.8599 147.593 16.8284C147.654 16.7651 147.739 16.674 147.849 16.5558C148.069 16.3194 148.39 15.9713 148.812 15.5119L149.066 15.2364L148.81 14.9633L138.718 4.21094Z" stroke="#FFFFFF" stroke-width="0.807617px" fill="none"></path>
<path d="M178.826 26.2562H174.796V11.5021C174.796 11.3383 174.807 11.2423 174.817 11.2012L174.828 11.1552V11.108V11.0096V10.6062H174.424H170.483C170.199 10.6062 169.918 10.4662 169.647 10.056C169.584 9.87896 169.557 9.72728 169.557 9.59901V5.96716H173.046C173.68 5.96716 174.188 5.63843 174.563 5.08502L174.57 5.07573L174.576 5.06606C174.723 4.82122 174.799 4.53 174.822 4.21094H181.049V24.003C181.049 24.7851 180.7 25.4402 179.932 25.9847C179.554 26.1699 179.187 26.2562 178.826 26.2562Z" stroke="#FFFFFF" stroke-width="0.807617px" fill="none"></path>
</g>
</svg></defs><use href="#svg1560642149_9171"></use></svg>