<svg xmlns:xlink="http://www.w3.org/1999/xlink" xmlns="http://www.w3.org/2000/svg" width="34" height="20" viewBox="0 0 34 20" fill="none" id="svg-857810999_615">
<path d="M0 19.2836C6.03683 19.2836 8.42692 9.64179 14.4627 9.64179V0C8.42692 0 6.03683 9.64179 0 9.64179V19.2836Z" fill="#FFFFFF"></path>
<path d="M14.4734 19.2836C20.5091 19.2836 22.9003 9.64179 28.9361 9.64179V0C22.9003 0 20.5091 9.64179 14.4734 9.64179V19.2836Z" fill="#FFFFFF"></path>
<path d="M28.936 19.2835C30.2146 19.2835 31.4408 18.7756 32.3449 17.8715C33.249 16.9674 33.7569 15.7412 33.7569 14.4626C33.7569 13.184 33.249 11.9578 32.3449 11.0537C31.4408 10.1496 30.2146 9.64172 28.936 9.64172V19.2835Z" fill="#FFFFFF"></path>
</svg>