<svg xmlns:xlink="http://www.w3.org/1999/xlink" xmlns="http://www.w3.org/2000/svg" width="165" height="25" viewBox="0 0 165 25" fill="none" id="svg-336875599_4511">
<path d="M14.8369 0H22.44V19.3564H17.4631V4.0096L13.3703 19.3564H8.16978L4.43581 4.12402V19.3564H0.431396V0H8.17499L11.2953 13.2198L14.8369 0Z" fill="#FFFFFF"></path>
<path d="M35.0253 5.53333H39.7058L31.3745 24.8897H26.8085L29.2423 19.2731L23.3137 5.53333H28.5142L31.5566 13.9114L35.0253 5.53333Z" fill="#FFFFFF"></path>
<path d="M39.5862 14.8527H44.8387C44.8959 16.3712 45.7228 17.4217 47.3298 17.4217C48.4063 17.4217 49.1552 16.9797 49.1552 16.2308C49.1552 15.1907 48.115 14.8787 46.2793 14.2962L43.7622 13.5213C41.1879 12.6945 39.8618 11.3631 39.8618 9.36092C39.8618 6.64624 42.3789 5.10168 46.8045 5.10168C51.1158 5.10168 53.6328 6.66185 53.9656 9.49614H49.1552C49.1035 8.91407 48.8245 8.37582 48.3786 7.9981C47.9327 7.62037 47.3559 7.43362 46.7733 7.47833C45.6396 7.47833 45.1143 7.99839 45.1143 8.55484C45.1143 9.47014 46.2793 9.82896 47.881 10.3282L50.4241 11.1291C51.8646 11.5711 54.4077 12.5384 54.4077 15.2479C54.4077 17.9574 51.8646 19.8088 47.0801 19.8088C42.6285 19.7984 40.0282 18.0562 39.5862 14.8527Z" fill="#FFFFFF"></path>
<path d="M64.0858 8.32087H61.6519V15.0816C61.6519 16.3245 61.8184 16.4909 63.6437 16.4909H64.0858V19.3668H60.9655C57.6215 19.3668 56.6542 18.3995 56.6542 14.6135V8.32087H54.9849V5.55418H56.675V2.51187L61.6519 0.577271V5.55418H64.0858V8.32087Z" fill="#FFFFFF"></path>
<path d="M79.8435 13.1937H70.1185C70.2277 16.5637 71.0598 17.3126 72.3859 17.3126C73.6288 17.3126 74.2685 16.5377 74.4349 14.8527H79.5783C79.2454 17.7546 76.9468 19.7984 72.3859 19.7984C67.097 19.7984 64.918 16.6417 64.918 12.5853C64.918 8.32604 67.1594 5.09131 72.5211 5.09131C77.0872 5.09131 79.8487 7.96719 79.8487 12.6685L79.8435 13.1937ZM70.2485 10.7027H74.5077V10.6195C74.5077 8.30004 73.5144 7.57716 72.4899 7.57716C71.0234 7.57716 70.3317 8.98649 70.2485 10.7027Z" fill="#FFFFFF"></path>
<path d="M95.2058 10.0942V19.3564H90.2289V10.9211C90.2289 9.23092 89.7088 8.40404 88.4035 8.40404C87.0981 8.40404 86.3857 9.31414 86.3857 11.5244V19.3252H81.4088V8.1024C81.4088 7.46794 81.4088 6.19382 81.3516 5.53336H86.3025V7.38474C86.9369 6.05861 88.3827 5.09131 90.5877 5.09131C93.5468 5.09131 95.2058 6.58386 95.2058 10.0942Z" fill="#FFFFFF"></path>
<path d="M108.275 15.9552H117.053V19.3564H103.012V0H108.264L108.275 15.9552Z" fill="#FFFFFF"></path>
<path d="M127.324 19.3564V17.4218C126.523 18.7791 125.14 19.554 122.841 19.554C119.69 19.554 117.979 17.9471 117.979 15.4612C117.979 12.7777 120.059 11.9196 123.091 11.3008L124.339 11.0511C126.575 10.6091 127.241 10.2503 127.241 9.17376C127.241 8.20646 126.633 7.56678 125.525 7.56678C125.267 7.53681 125.006 7.56557 124.76 7.65088C124.515 7.7362 124.293 7.87588 124.109 8.05946C123.925 8.24304 123.786 8.46577 123.7 8.71097C123.615 8.95617 123.586 9.2175 123.616 9.47539H118.483C118.619 6.46428 120.86 5.08093 125.561 5.08093C130.429 5.08093 132.114 6.76591 132.114 9.6678V17.1618C132.114 18.0719 132.114 18.8207 132.197 19.372L127.324 19.3564ZM127.132 14.2131V12.5541C126.768 12.7205 126.326 12.8869 125.608 13.1366L125.192 13.277C123.84 13.719 123.174 14.0206 123.174 15.0191C123.174 15.9292 123.783 16.5793 124.974 16.5793C126.347 16.5637 127.121 15.6536 127.121 14.2131H127.132Z" fill="#FFFFFF"></path>
<path d="M148.646 12.3357C148.646 16.4545 146.431 19.5228 142.406 19.5228C141.756 19.546 141.109 19.4299 140.508 19.1823C139.907 18.9347 139.366 18.5614 138.921 18.0874L138.537 19.3564H134.111V0H139.088V6.94271C139.52 6.36087 140.083 5.88969 140.732 5.56786C141.381 5.24602 142.097 5.08271 142.822 5.09132C146.894 5.09132 148.646 8.15963 148.646 12.3357ZM143.196 12.3357C143.196 9.26734 142.343 7.99321 141.043 7.99321C139.546 7.99321 138.963 9.26734 138.963 12.3357C138.963 14.8215 139.54 16.6209 141.043 16.6209C142.635 16.6417 143.212 14.8215 143.212 12.3357H143.196Z" fill="#FFFFFF"></path>
<path d="M149.479 14.8527H154.731C154.788 16.3712 155.615 17.4217 157.222 17.4217C158.299 17.4217 159.042 16.9797 159.042 16.2308C159.042 15.1907 158.002 14.8787 156.166 14.2962L153.655 13.5213C151.054 12.6945 149.754 11.3631 149.754 9.36092C149.754 6.64624 152.271 5.10168 156.697 5.10168C161.008 5.10168 163.525 6.66185 163.858 9.49614H159.048C158.997 8.91451 158.719 8.37626 158.274 7.99841C157.829 7.62057 157.253 7.43367 156.671 7.47833C155.537 7.47833 155.012 7.99839 155.012 8.55484C155.012 9.47014 156.172 9.82896 157.779 10.3282L160.322 11.1291C161.762 11.5711 164.305 12.5384 164.305 15.2479C164.305 17.9574 161.762 19.8088 156.978 19.8088C152.521 19.7984 149.921 18.0562 149.479 14.8527Z" fill="#FFFFFF"></path>
</svg>