<svg xmlns:xlink="http://www.w3.org/1999/xlink" xmlns="http://www.w3.org/2000/svg" width="30" height="30" viewBox="0 0 30 30" fill="none" id="svg940534679_1151">
<g clip-path="url(#svg940534679_1151_clip0_731_29983)" fill="none">
<path fill-rule="evenodd" clip-rule="evenodd" d="M28.4327 6.04246C28.8982 6.51092 29.2324 7.09341 29.402 7.73164C30.0293 10.0873 30.0293 14.9998 30.0293 14.9998C30.0293 14.9998 30.0293 19.9123 29.402 22.268C29.2324 22.9062 28.8982 23.4887 28.4327 23.9572C27.9672 24.4256 27.3869 24.7636 26.7498 24.9373C24.4043 25.568 15.0293 25.568 15.0293 25.568C15.0293 25.568 5.6543 25.568 3.30884 24.9373C2.67171 24.7636 2.09137 24.4256 1.62591 23.9572C1.16044 23.4887 0.826179 22.9062 0.65657 22.268C0.0292969 19.9123 0.0292969 14.9998 0.0292969 14.9998C0.0292969 14.9998 0.0292969 10.0873 0.65657 7.73164C0.826179 7.09341 1.16044 6.51092 1.62591 6.04246C2.09137 5.574 2.67171 5.23602 3.30884 5.06232C5.6543 4.43164 15.0293 4.43164 15.0293 4.43164C15.0293 4.43164 24.4043 4.43164 26.7498 5.06232C27.3869 5.23602 27.9672 5.574 28.4327 6.04246ZM19.802 14.9998L11.9611 10.539V19.4606L19.802 14.9998Z" fill="black"></path>
</g>
<defs>
<clipPath id="svg940534679_1151_clip0_731_29983">
<rect width="30" height="30" fill="white"></rect>
</clipPath>
</defs>
</svg>