<svg xmlns:xlink="http://www.w3.org/1999/xlink" xmlns="http://www.w3.org/2000/svg" style="width:100%;height:100%" viewBox="0 0 643 368" preserveAspectRatio="none" width="643" height="368"><defs><svg width="643" height="368" viewBox="0 0 643 368" fill="none" id="svg1452757479_1333">
<path d="M1 366.798V184.897C29.6043 184.634 53.9116 173.085 76.0006 155.957C98.3142 138.656 118.433 115.605 138.47 92.6464L138.503 92.6085C158.581 69.6039 178.579 46.6952 200.72 29.5251C222.582 12.5719 246.465 1.26794 274.484 1.00493V182.906C245.885 183.17 221.581 194.718 199.495 211.846C177.188 229.145 157.074 252.19 137.04 275.145L136.996 275.195C116.918 298.199 96.9189 321.108 74.7751 338.278C52.9112 355.232 29.0236 366.536 1 366.798Z" stroke="#DCDADA" stroke-width="2px" fill="none"></path>
<path d="M276.691 366.798V184.897C305.291 184.634 329.595 173.085 351.683 155.957C373.994 138.657 394.111 115.609 414.148 92.6527L414.187 92.6086C434.266 69.604 454.266 46.6953 476.409 29.5251C498.272 12.5719 522.157 1.26794 550.175 1.00493V182.906C521.576 183.17 497.271 194.718 475.183 211.846C452.873 229.146 432.755 252.195 412.718 275.151L412.68 275.195C392.601 298.199 372.601 321.108 350.458 338.278C328.595 355.232 304.71 366.535 276.691 366.798Z" stroke="#DCDADA" stroke-width="2px" fill="none"></path>
<path d="M615.4 340.164C598.603 356.985 575.903 366.536 552.176 366.797V184.907C575.903 185.168 598.603 194.72 615.4 211.54C632.434 228.596 642.004 251.73 642.004 275.852C642.004 299.974 632.434 323.108 615.4 340.164Z" stroke="#DCDADA" stroke-width="2px" fill="none"></path>
</svg></defs><use href="#svg1452757479_1333"></use></svg>